<?xml version="1.0" standalone="no"?>
<!DOCTYPE svg PUBLIC "-//W3C//DTD SVG 20010904//EN"
 "http://www.w3.org/TR/2001/REC-SVG-20010904/DTD/svg10.dtd">
<svg version="1.0" xmlns="http://www.w3.org/2000/svg"
 width="969.000000pt" height="969.000000pt" viewBox="0 0 969.000000 969.000000"
 preserveAspectRatio="xMidYMid meet">
<metadata>
Created by potrace 1.14, written by Peter Selinger 2001-2017
</metadata>
<g transform="translate(0.000000,969.000000) scale(0.100000,-0.100000)"
fill="#000000" stroke="none">
<path d="M583 9404 c3 -4 -4 -15 -16 -26 -12 -11 -15 -17 -7 -13 8 4 5 -2 -7
-12 -12 -10 -23 -24 -25 -32 -2 -7 -18 -30 -35 -50 -18 -20 -33 -42 -33 -48 0
-7 -5 -13 -11 -13 -5 0 -8 -4 -4 -9 3 -6 -1 -13 -8 -18 -16 -9 -42 -54 -39
-65 1 -5 -4 -7 -11 -5 -6 1 -11 -4 -10 -10 2 -7 -2 -13 -9 -13 -6 0 -8 -3 -5
-7 4 -3 -2 -12 -13 -20 -12 -8 -17 -20 -13 -30 4 -11 3 -14 -5 -9 -11 6 -17
-5 -13 -27 0 -4 -3 -6 -8 -5 -5 2 -10 -1 -11 -7 -1 -5 -8 -14 -16 -18 -8 -4
-14 -13 -14 -18 0 -6 -18 -36 -40 -68 -21 -32 -36 -61 -33 -65 4 -3 1 -6 -5
-6 -5 0 -21 -17 -33 -37 -13 -21 -28 -41 -33 -45 -6 -4 -7 -8 -2 -8 5 0 1 -9
-9 -20 -10 -11 -14 -20 -9 -20 5 0 4 -4 -3 -8 -17 -11 -87 -116 -71 -107 7 4
3 -2 -9 -14 l-23 -22 0 -4124 0 -4125 1422 0 c782 0 1418 3 1415 6 -3 4 -2 14
3 23 4 9 11 37 15 61 4 25 9 48 11 52 5 8 15 60 17 91 1 9 4 17 7 17 4 0 7 6
8 13 5 41 10 72 12 72 2 0 5 15 14 60 3 17 8 41 11 55 3 14 8 36 11 50 3 13 6
26 8 27 1 2 29 -4 62 -13 32 -8 68 -17 79 -18 11 -2 28 -7 38 -11 10 -4 31 -8
47 -9 17 0 30 -5 30 -9 0 -5 7 -7 15 -4 8 4 17 2 20 -3 3 -4 13 -7 23 -5 9 1
23 -2 30 -8 6 -5 12 -7 12 -4 0 3 17 1 38 -5 20 -5 48 -10 62 -12 14 -2 34 -6
45 -9 11 -3 40 -9 65 -12 24 -4 47 -8 51 -11 4 -2 28 -6 55 -9 27 -3 60 -8 74
-11 14 -3 39 -7 55 -9 17 -3 48 -7 70 -10 22 -3 63 -8 90 -10 28 -2 64 -6 80
-9 51 -10 253 -19 418 -19 86 0 157 -2 157 -6 -1 -9 -30 -46 -30 -37 0 4 -11
-4 -24 -18 -13 -15 -28 -26 -33 -26 -13 0 -83 -76 -83 -90 0 -5 -5 -10 -12
-10 -6 0 -9 -3 -5 -6 3 -3 -12 -22 -33 -42 -22 -19 -36 -40 -33 -45 3 -6 1 -7
-4 -4 -6 4 -18 -2 -28 -13 -18 -20 -7 -20 1608 -20 l1625 0 -5 21 c-3 11 -20
36 -38 55 -18 19 -30 34 -28 34 2 0 -2 7 -9 15 -25 28 -35 41 -39 52 -2 6 -17
28 -34 49 -37 46 -171 184 -160 165 5 -9 4 -12 -3 -7 -7 4 -12 14 -12 23 0 9
-3 14 -6 10 -3 -3 -16 5 -29 18 -12 14 -25 22 -28 19 -3 -3 -10 4 -16 15 -14
26 -96 83 -106 73 -3 -4 -5 -2 -3 5 1 6 0 10 -4 9 -4 0 -14 8 -23 19 -9 11
-13 13 -9 5 4 -8 -10 2 -31 23 -22 20 -45 37 -51 37 -7 0 -14 4 -16 9 -3 8
-91 69 -140 97 -36 21 -41 32 -19 39 12 3 21 11 21 16 0 6 4 8 9 5 5 -3 19 3
32 13 13 10 34 21 47 25 12 4 22 12 22 17 0 5 3 8 8 7 14 -4 52 13 52 23 0 6
4 8 9 4 5 -3 17 3 27 12 10 10 20 17 23 17 12 -3 91 38 91 47 0 5 3 8 8 7 14
-4 52 13 52 23 0 6 4 8 9 4 5 -3 15 0 23 7 7 7 20 14 28 16 8 2 21 11 28 20 7
9 16 16 20 15 12 -5 42 8 42 18 0 5 3 8 8 7 10 -3 115 52 123 64 3 5 9 9 13 9
9 -1 40 12 46 19 6 8 70 40 79 40 4 0 8 -15 10 -33 4 -45 8 -72 11 -72 1 0 3
-13 5 -30 1 -16 6 -48 9 -70 3 -22 9 -60 12 -85 4 -25 9 -54 11 -65 2 -11 6
-33 8 -50 1 -16 4 -30 5 -30 1 0 4 -11 6 -25 2 -23 8 -62 17 -120 3 -14 8 -45
12 -70 9 -54 13 -75 15 -75 1 0 3 -13 3 -30 1 -16 5 -34 8 -40 4 -5 5 -20 4
-33 -1 -12 1 -22 5 -22 4 0 6 -10 5 -23 -1 -12 0 -26 3 -32 4 -5 7 -16 8 -25
1 -8 5 -33 9 -55 4 -22 7 -48 7 -57 -1 -10 3 -20 8 -23 5 -3 7 -12 4 -20 -3
-8 -2 -20 2 -27 5 -7 9 -21 10 -30 1 -10 3 -21 4 -25 4 -12 7 -27 8 -40 2 -10
204 -13 977 -13 l975 0 -1 1278 c0 702 -3 1271 -6 1264 -2 -6 -9 -10 -14 -6
-5 3 -15 2 -21 -3 -7 -4 -22 -9 -33 -10 -10 -2 -22 -8 -26 -15 -4 -6 -11 -8
-16 -5 -5 3 -21 0 -36 -8 -14 -7 -28 -11 -31 -7 -3 3 -6 0 -6 -6 0 -6 -6 -9
-14 -6 -8 3 -17 0 -21 -5 -3 -6 -11 -9 -16 -6 -5 4 -9 2 -9 -4 0 -6 -7 -8 -15
-5 -8 4 -15 1 -15 -5 0 -6 -3 -10 -7 -10 -5 1 -11 0 -15 -1 -5 -1 -12 -4 -18
-5 -5 -1 -11 -3 -12 -4 -2 -2 -14 -5 -28 -7 -14 -3 -26 -9 -28 -14 -2 -5 -10
-6 -18 -3 -8 3 -14 1 -14 -4 0 -5 -7 -10 -15 -10 -8 0 -15 2 -15 4 0 8 34 38
39 36 3 -2 6 3 6 10 0 6 5 12 10 12 12 1 53 24 42 25 -4 0 5 12 20 26 15 15
27 30 25 35 -1 5 1 8 5 7 5 -2 9 0 11 5 1 4 11 16 22 27 12 12 18 25 15 30 -4
6 -2 10 4 10 6 0 17 17 26 38 9 20 21 45 26 55 5 10 7 22 4 27 -3 4 -1 10 5
12 6 2 11 18 13 36 1 17 6 32 10 32 5 0 6 4 2 9 -3 5 -1 12 5 16 6 4 8 10 5
15 -3 4 2 13 10 20 8 7 12 16 9 21 -3 5 0 9 7 9 7 0 9 3 6 7 -4 3 -2 12 4 20
6 7 8 13 3 13 -5 0 -4 4 2 8 10 7 54 116 55 137 0 6 6 17 13 25 8 8 12 23 11
32 -2 10 0 18 4 18 30 0 31 69 31 3013 l0 2947 -1510 0 c-937 0 -1510 -4
-1510 -9 0 -6 5 -13 11 -16 5 -4 8 -12 6 -18 -2 -7 -1 -21 3 -32 7 -18 4 -21
-29 -21 -20 -1 -72 -4 -116 -8 -44 -4 -84 -8 -90 -8 -13 0 -100 19 -100 22 0
3 -41 12 -62 13 -13 0 -23 4 -23 7 0 4 -6 7 -12 8 -20 1 -119 13 -163 19 -58
8 -611 7 -670 -1 -74 -11 -139 -13 -150 -5 -5 3 -17 7 -25 7 -8 1 -28 4 -45 7
-109 20 -850 25 -850 5 0 -1 -9 -3 -20 -4 -74 -11 -117 -19 -165 -32 -30 -8
-64 -17 -75 -19 -48 -10 -140 -40 -143 -47 -2 -5 -8 -6 -13 -2 -5 3 -15 2 -21
-3 -7 -4 -16 -8 -20 -9 -5 -1 -10 -3 -13 -4 -30 -15 -45 2 -37 44 3 17 5 47 6
66 l1 35 -1639 3 c-902 1 -1637 -1 -1633 -4z m942 -6504 c-3 -5 1 -10 9 -10 9
0 15 -6 14 -12 -2 -7 3 -12 10 -10 6 1 12 -5 12 -14 0 -9 5 -12 13 -8 6 4 9 4
5 -1 -10 -11 11 -37 23 -29 5 3 8 0 7 -8 -2 -7 3 -12 10 -10 8 1 11 -2 8 -7
-3 -5 2 -15 11 -22 14 -12 16 -12 8 0 -5 10 -4 12 3 7 7 -4 12 -13 12 -20 0
-7 11 -19 25 -26 14 -7 25 -17 25 -22 0 -5 5 -6 11 -3 6 4 17 -1 25 -11 9 -11
13 -13 9 -7 -4 8 -1 11 8 7 8 -3 13 -13 10 -23 -4 -15 4 -17 66 -16 38 1 68
-2 65 -6 -2 -4 1 -9 7 -11 5 -2 12 -40 14 -88 2 -47 4 -88 4 -92 1 -3 14 -9
30 -13 26 -6 28 -9 29 -58 1 -29 4 -203 7 -387 3 -184 6 -383 8 -443 1 -60 -2
-107 -7 -107 -5 0 -6 -3 -3 -6 3 -4 2 -14 -3 -24 -9 -17 -17 -17 -85 -5 -11 2
-20 4 -20 5 0 3 -15 5 -65 13 -14 2 -31 7 -38 11 -7 4 -16 4 -22 1 -5 -3 -10
-2 -10 4 0 5 -11 8 -25 6 -14 -1 -25 1 -25 4 0 4 -10 7 -22 8 -13 1 -34 4 -48
8 -14 4 -34 8 -45 10 -11 2 -20 4 -20 5 0 1 -7 3 -16 5 -38 7 -59 17 -54 25 3
5 -3 15 -15 22 -11 7 -20 18 -20 24 0 6 -12 24 -26 40 -15 15 -39 45 -54 66
-15 20 -31 34 -35 30 -3 -4 -6 -2 -5 3 5 21 0 36 -10 30 -5 -3 -10 -1 -10 4 0
11 -20 39 -56 77 -12 13 -20 24 -18 27 2 2 -15 23 -39 47 -23 25 -42 47 -42
50 0 7 -36 55 -77 105 -30 36 -30 49 3 115 13 25 22 48 21 53 -1 4 3 7 9 7 6
0 8 7 5 16 -3 8 -2 12 4 9 9 -5 15 16 11 38 -1 5 3 6 8 3 12 -8 23 22 14 37
-3 7 -3 9 2 5 8 -8 61 90 57 105 -1 4 3 7 9 7 5 0 8 4 5 9 -3 5 1 11 9 15 9 3
12 12 8 22 -4 11 -2 15 4 11 10 -6 27 27 24 46 -1 4 3 7 7 7 5 0 14 16 22 35
8 19 17 35 21 35 8 0 35 62 31 73 -1 5 2 6 8 2 5 -3 10 -1 10 4 0 19 3 25 22
45 10 11 18 25 18 31 0 6 6 17 13 24 6 6 12 15 12 19 1 15 56 92 66 92 5 0 7
-4 4 -10z m7425 -338 c0 -7 -5 -10 -10 -7 -6 4 -18 1 -26 -6 -13 -10 -17 -10
-25 2 -14 22 -11 24 26 24 22 0 35 -5 35 -13z"/>
</g>
</svg>
